<svg width="60" height="64" viewBox="0 0 60 64" fill="none" xmlns="http://www.w3.org/2000/svg">
<g filter="url(#filter0_d_8_148)">
<path d="M48.75 26.25C48.75 44.105 30 54.375 30 54.375C30 54.375 11.25 44.105 11.25 26.25C11.25 21.2772 13.2254 16.5081 16.7417 12.9917C20.2581 9.47544 25.0272 7.5 30 7.5C34.9728 7.5 39.7419 9.47544 43.2583 12.9917C46.7746 16.5081 48.75 21.2772 48.75 26.25Z" fill="#7209B7" stroke="#7209B7" stroke-width="1.5" stroke-linecap="round" stroke-linejoin="round"/>
<path d="M37.5 26.25C37.5 28.2391 36.7098 30.1468 35.3033 31.5533C33.8968 32.9598 31.9891 33.75 30 33.75C28.0109 33.75 26.1032 32.9598 24.6967 31.5533C23.2902 30.1468 22.5 28.2391 22.5 26.25C22.5 24.2609 23.2902 22.3532 24.6967 20.9467C26.1032 19.5402 28.0109 18.75 30 18.75C31.9891 18.75 33.8968 19.5402 35.3033 20.9467C36.7098 22.3532 37.5 24.2609 37.5 26.25Z" fill="white" stroke="#7209B7" stroke-width="1.5" stroke-linecap="round" stroke-linejoin="round"/>
</g>
<defs>
<filter id="filter0_d_8_148" x="-4" y="0" width="68" height="68" filterUnits="userSpaceOnUse" color-interpolation-filters="sRGB">
<feFlood flood-opacity="0" result="BackgroundImageFix"/>
<feColorMatrix in="SourceAlpha" type="matrix" values="0 0 0 0 0 0 0 0 0 0 0 0 0 0 0 0 0 0 127 0" result="hardAlpha"/>
<feOffset dy="4"/>
<feGaussianBlur stdDeviation="2"/>
<feComposite in2="hardAlpha" operator="out"/>
<feColorMatrix type="matrix" values="0 0 0 0 0 0 0 0 0 0 0 0 0 0 0 0 0 0 0.25 0"/>
<feBlend mode="normal" in2="BackgroundImageFix" result="effect1_dropShadow_8_148"/>
<feBlend mode="normal" in="SourceGraphic" in2="effect1_dropShadow_8_148" result="shape"/>
</filter>
</defs>
</svg>
